<?xml version="1.0" encoding="UTF-8" standalone="no"?>
<!-- Created with Inkscape (http://www.inkscape.org/) -->

<svg
   width="30"
   height="30"
   viewBox="0 0 30 30"
   id="svg2"
   version="1.1"
   xmlns="http://www.w3.org/2000/svg"
   xmlns:svg="http://www.w3.org/2000/svg"
   xmlns:rdf="http://www.w3.org/1999/02/22-rdf-syntax-ns#"
   xmlns:cc="http://creativecommons.org/ns#"
   xmlns:dc="http://purl.org/dc/elements/1.1/">
  <defs
     id="defs4" />
  <metadata
     id="metadata7">
    <rdf:RDF>
      <cc:Work
         rdf:about="">
        <dc:format>image/svg+xml</dc:format>
        <dc:type
           rdf:resource="http://purl.org/dc/dcmitype/StillImage" />
        <dc:title />
      </cc:Work>
    </rdf:RDF>
  </metadata>
  <g
     id="layer1"
     transform="translate(0,-1022.3622)">
    <g
       id="g4213">
      <path
         id="rect4800"
         style="fill:#5981ff;stroke-width:1.5;stroke-linecap:round;stroke-linejoin:round"
         d="m 0,1022.3622 h 30 v 30 H 0 Z" />
      <g
         transform="matrix(1.1669166,0,0,1.1669166,-2.5413153,-173.19631)"
         id="g4195">
        <g
           aria-label="&lt;html&gt;"
           transform="rotate(-45)"
           id="text4819-8"
           style="font-weight:bold;line-height:0%;font-family:'Courier New';-inkscape-font-specification:'Courier New Bold';letter-spacing:0px;word-spacing:0px;fill:#1e2329;stroke-width:1px">
          <path
             d="m -736.43076,744.47323 2.72572,1.51064 q 0.20525,0.11494 0.27093,0.20525 0.0698,0.0903 0.0698,0.22987 0,0.17652 -0.12726,0.30788 -0.12725,0.12725 -0.29556,0.12725 -0.11083,0 -0.3325,-0.12315 l -4.05984,-2.25774 4.05984,-2.25775 q 0.22167,-0.11904 0.3284,-0.11904 0.17241,0 0.29966,0.12725 0.12726,0.12725 0.12726,0.30377 0,0.13957 -0.0698,0.22988 -0.0657,0.0903 -0.27093,0.20525 z"
             style="font-size:8.40703px;line-height:1.25"
             id="path14" />
          <path
             d="m -731.3734,741.54637 v 1.79388 q 0.26272,-0.15599 0.52954,-0.22988 0.27093,-0.078 0.54597,-0.078 0.43513,0 0.77584,0.14778 0.34072,0.14778 0.56239,0.46797 0.22577,0.31609 0.22577,0.80048 v 1.58042 q 0.32019,0 0.41871,0.0616 0.19704,0.12725 0.19704,0.36123 0,0.18473 -0.12726,0.30377 -0.12725,0.11494 -0.43102,0.11494 h -0.96057 q -0.29966,0 -0.43102,-0.11494 -0.12726,-0.11904 -0.12726,-0.30787 0,-0.22988 0.19704,-0.35713 0.10263,-0.0657 0.41871,-0.0616 v -1.52295 q 0,-0.3243 -0.14778,-0.45566 -0.19293,-0.17651 -0.57059,-0.17651 -0.27914,0 -0.49671,0.11083 -0.21346,0.10673 -0.5788,0.46797 v 1.57632 q 0.32429,0 0.41871,0.0616 0.20114,0.12725 0.20114,0.36123 0,0.18473 -0.13136,0.30377 -0.12725,0.11494 -0.43102,0.11494 h -0.95647 q -0.30377,0 -0.43513,-0.11494 -0.12725,-0.11904 -0.12725,-0.30787 0,-0.22988 0.20114,-0.35713 0.0985,-0.0657 0.41871,-0.0616 v -3.64113 h -0.14367 q -0.30377,0 -0.43513,-0.11494 -0.12725,-0.11905 -0.12725,-0.30787 0,-0.18473 0.12725,-0.29967 0.13136,-0.11904 0.43513,-0.11904 z"
             style="font-size:8.40703px;line-height:1.25"
             id="path16" />
          <path
             d="m -725.66746,743.98473 v 1.68716 q 0,0.27093 0.11084,0.35713 0.17241,0.13547 0.61575,0.13547 0.64448,0 1.19044,-0.27504 0.20936,-0.10673 0.3284,-0.10673 0.1642,0 0.28325,0.12315 0.12315,0.12315 0.12315,0.29967 0,0.1642 -0.13136,0.28324 -0.20115,0.19293 -0.79637,0.35713 -0.59112,0.1601 -0.99751,0.1601 -0.78406,0 -1.17814,-0.33661 -0.38997,-0.34071 -0.38997,-0.83331 v -1.85136 h -0.30377 q -0.30377,0 -0.43513,-0.11494 -0.12726,-0.11904 -0.12726,-0.30787 0,-0.18473 0.12726,-0.29967 0.13136,-0.11904 0.43513,-0.11904 h 0.30377 v -0.75943 q 0,-0.30376 0.11494,-0.43102 0.11904,-0.13136 0.30787,-0.13136 0.18473,0 0.29967,0.13136 0.11904,0.12726 0.11904,0.43102 v 0.75943 h 1.55579 q 0.30377,0 0.43103,0.11904 0.13136,0.11494 0.13136,0.30377 0,0.18473 -0.13136,0.30377 -0.12726,0.11494 -0.43103,0.11494 z"
             style="font-size:8.40703px;line-height:1.25"
             id="path18" />
          <path
             d="m -721.71435,743.14321 v 0.23809 q 0.20525,-0.20115 0.36945,-0.27504 0.16831,-0.078 0.38587,-0.078 0.18473,0 0.36535,0.0903 0.18062,0.0903 0.35303,0.27093 0.21756,-0.18062 0.43923,-0.26683 0.22577,-0.0903 0.45976,-0.0903 0.46797,0 0.75942,0.25041 0.38587,0.3284 0.38587,0.86205 v 1.88419 q 0.26272,0 0.38998,0.11905 0.12725,0.11904 0.12725,0.30376 0,0.18473 -0.12725,0.30377 -0.12726,0.11494 -0.43103,0.11494 h -0.80047 v -2.65593 q 0,-0.19293 -0.0698,-0.26682 -0.0698,-0.0739 -0.21346,-0.0739 -0.13957,0 -0.25861,0.0739 -0.15189,0.10262 -0.36945,0.38587 v 1.69536 q 0.26272,0 0.38997,0.11905 0.12726,0.11904 0.12726,0.30376 0,0.18473 -0.12726,0.30377 -0.12725,0.11494 -0.43102,0.11494 h -0.80047 v -2.65593 q 0,-0.18883 -0.0739,-0.26272 -0.0698,-0.078 -0.21346,-0.078 -0.14778,0 -0.29146,0.0944 -0.14367,0.0903 -0.34482,0.36535 v 1.69536 q 0.26272,0 0.38998,0.11905 0.13136,0.11904 0.13136,0.30376 0,0.18473 -0.13136,0.30377 -0.12726,0.11494 -0.43103,0.11494 h -0.75942 q -0.30377,0 -0.43103,-0.11494 -0.13136,-0.11904 -0.13136,-0.30787 0,-0.18472 0.12726,-0.29966 0.12725,-0.11905 0.39408,-0.11905 v -2.04429 q -0.26683,0 -0.39408,-0.11904 -0.12726,-0.11905 -0.12726,-0.30377 0,-0.18473 0.13136,-0.29967 0.12726,-0.11904 0.43103,-0.11904 z"
             style="font-size:8.40703px;line-height:1.25"
             id="path20" />
          <path
             d="m -714.94932,741.54637 v 4.48265 h 1.00983 q 0.30377,0 0.43103,0.11905 0.13136,0.11494 0.13136,0.30376 0,0.18473 -0.13136,0.30377 -0.12726,0.11494 -0.43103,0.11494 h -2.86118 q -0.30377,0 -0.43513,-0.11494 -0.12725,-0.11904 -0.12725,-0.30787 0,-0.18472 0.12725,-0.29966 0.13136,-0.11905 0.43513,-0.11905 h 1.00983 v -3.64113 h -0.67732 q -0.29967,0 -0.43103,-0.11494 -0.13136,-0.11905 -0.13136,-0.30787 0,-0.18473 0.12726,-0.29967 0.13136,-0.11904 0.43513,-0.11904 z"
             style="font-size:8.40703px;line-height:1.25"
             id="path22" />
          <path
             d="m -709.43631,744.47323 -2.72571,-1.51064 q -0.20525,-0.11494 -0.27504,-0.20525 -0.0657,-0.0903 -0.0657,-0.22988 0,-0.17652 0.12726,-0.30377 0.12725,-0.12725 0.29966,-0.12725 0.10673,0 0.3284,0.11904 l 4.05984,2.25775 -4.05984,2.25774 q -0.22167,0.12315 -0.3284,0.12315 -0.17241,0 -0.29966,-0.12725 -0.12726,-0.12726 -0.12726,-0.30788 0,-0.13956 0.0657,-0.22987 0.0698,-0.0903 0.27504,-0.20525 z"
             style="font-size:8.40703px;line-height:1.25"
             id="path24" />
        </g>
        <path
           style="fill:none;fill-opacity:1;stroke:#1e2329;stroke-width:1.2;stroke-miterlimit:4;stroke-dasharray:none"
           d="m 19.493456,1027.608 c -4.110351,-1.7863 -8.89495,-0.8783 -12.0650096,2.2898 -3.1648562,3.1702 -4.071141,7.9525 -2.2856671,12.0609 m 6.1277987,5.8433 c 4.013483,1.5297 8.550995,0.5631 11.592683,-2.4694 3.035635,-3.0416 4.003945,-7.5814 2.473494,-11.5968"
           id="path3348" />
      </g>
    </g>
  </g>
</svg>
