<?xml version="1.0" encoding="UTF-8" standalone="no"?>
<!-- Created with Inkscape (http://www.inkscape.org/) -->

<svg
   width="200"
   height="30"
   viewBox="0 0 200 30"
   id="svg2"
   version="1.1"
   xmlns="http://www.w3.org/2000/svg"
   xmlns:svg="http://www.w3.org/2000/svg"
   xmlns:rdf="http://www.w3.org/1999/02/22-rdf-syntax-ns#"
   xmlns:cc="http://creativecommons.org/ns#"
   xmlns:dc="http://purl.org/dc/elements/1.1/">
  <defs
     id="defs4" />
  <metadata
     id="metadata7">
    <rdf:RDF>
      <cc:Work
         rdf:about="">
        <dc:format>image/svg+xml</dc:format>
        <dc:type
           rdf:resource="http://purl.org/dc/dcmitype/StillImage" />
        <dc:title />
      </cc:Work>
    </rdf:RDF>
  </metadata>
  <g
     id="layer1"
     transform="translate(0,-1022.3622)">
    <g
       aria-label="HtmlWasher"
       id="text4819"
       style="font-weight:bold;line-height:0%;font-family:'Courier New';-inkscape-font-specification:'Courier New Bold';letter-spacing:0px;word-spacing:0px;fill:#c7d4d6;stroke-width:1px">
      <path
         d="M 49.067755,1038.6376 H 43.88447 v 3.5147 h 0.378687 q 0.875715,0 1.242569,0.3432 0.378687,0.3313 0.378687,0.8757 0,0.5325 -0.378687,0.8757 -0.366854,0.3313 -1.242569,0.3313 h -2.97033 q -0.875715,0 -1.254402,-0.3313 -0.366854,-0.3432 -0.366854,-0.8876 0,-0.6627 0.579865,-1.0295 0.284016,-0.1894 1.207067,-0.1775 v -9.4909 q -0.639035,-0.059 -0.970387,-0.3905 -0.319517,-0.3313 -0.319517,-0.8284 0,-0.5443 0.366853,-0.8757 0.378688,-0.3432 1.254402,-0.3432 l 2.473303,0.012 q 0.875715,0 1.242569,0.3313 0.378687,0.3314 0.378687,0.8757 0,0.5444 -0.378687,0.8876 -0.366854,0.3313 -1.242569,0.3313 H 43.88447 v 3.5502 h 5.183285 v -3.5502 h -0.378688 q -0.875715,0 -1.254402,-0.3313 -0.366854,-0.3432 -0.366854,-0.8876 0,-0.5443 0.366854,-0.8757 0.378687,-0.3432 1.254402,-0.3432 l 2.473303,0.012 q 0.875715,0 1.242568,0.3313 0.378688,0.3314 0.378688,0.8757 0,0.4971 -0.331352,0.8284 -0.319517,0.3314 -0.958552,0.3905 v 9.4909 q 0.934884,0 1.207066,0.1775 0.579865,0.3668 0.579865,1.0414 0,0.5325 -0.378687,0.8757 -0.366854,0.3313 -1.242569,0.3313 h -2.97033 q -0.875715,0 -1.254402,-0.3313 -0.366854,-0.3432 -0.366854,-0.8876 0,-0.5325 0.378688,-0.8638 0.378687,-0.3432 1.242568,-0.3432 h 0.378688 z"
         style="font-size:24.236px;line-height:1.25"
         id="path15" />
      <path
         d="m 60.357376,1036.259 v 4.8637 q 0,0.7811 0.319518,1.0296 0.497027,0.3905 1.775098,0.3905 1.857935,0 3.431855,-0.7929 0.603533,-0.3077 0.946719,-0.3077 0.473359,0 0.816545,0.3551 0.355019,0.355 0.355019,0.8638 0,0.4734 -0.378687,0.8166 -0.579865,0.5562 -2.295793,1.0295 -1.704094,0.4616 -2.875658,0.4616 -2.260291,0 -3.396354,-0.9704 -1.124228,-0.9822 -1.124228,-2.4023 v -5.3371 h -0.875715 q -0.875715,0 -1.254403,-0.3314 -0.366853,-0.3432 -0.366853,-0.8875 0,-0.5326 0.366853,-0.8639 0.378688,-0.3432 1.254403,-0.3432 h 0.875715 v -2.1893 q 0,-0.8757 0.331351,-1.2426 0.343186,-0.3787 0.887549,-0.3787 0.532529,0 0.863881,0.3787 0.343185,0.3669 0.343185,1.2426 v 2.1893 h 4.48508 q 0.875715,0 1.242569,0.3432 0.378687,0.3313 0.378687,0.8757 0,0.5325 -0.378687,0.8757 -0.366854,0.3314 -1.242569,0.3314 z"
         style="font-size:24.236px;line-height:1.25"
         id="path17" />
      <path
         d="m 71.753504,1033.833 v 0.6864 q 0.591699,-0.5799 1.065058,-0.7929 0.485194,-0.2249 1.112395,-0.2249 0.532529,0 1.053224,0.2604 0.520696,0.2603 1.017723,0.781 0.627201,-0.5207 1.266236,-0.7692 0.65087,-0.2603 1.325407,-0.2603 1.349074,0 2.189287,0.7218 1.112394,0.9468 1.112394,2.4852 v 5.4318 q 0.757375,0 1.124229,0.3432 0.366853,0.3432 0.366853,0.8757 0,0.5325 -0.366853,0.8757 -0.366854,0.3313 -1.242568,0.3313 h -2.307627 v -7.6565 q 0,-0.5562 -0.201178,-0.7692 -0.201178,-0.2131 -0.615367,-0.2131 -0.402356,0 -0.745541,0.2131 -0.437858,0.2958 -1.065059,1.1123 v 4.8875 q 0.757375,0 1.124229,0.3432 0.366853,0.3432 0.366853,0.8757 0,0.5325 -0.366853,0.8757 -0.366854,0.3313 -1.242569,0.3313 H 74.41615 v -7.6565 q 0,-0.5444 -0.213011,-0.7574 -0.201178,-0.2249 -0.615368,-0.2249 -0.426023,0 -0.840213,0.2722 -0.414189,0.2604 -0.994054,1.0532 v 4.8875 q 0.757375,0 1.124228,0.3432 0.378688,0.3432 0.378688,0.8757 0,0.5325 -0.378688,0.8757 -0.366853,0.3313 -1.242568,0.3313 h -2.189287 q -0.875715,0 -1.242569,-0.3313 -0.378687,-0.3432 -0.378687,-0.8876 0,-0.5325 0.366853,-0.8638 0.366854,-0.3432 1.136063,-0.3432 v -5.8933 q -0.769209,0 -1.136063,-0.3432 -0.366853,-0.3432 -0.366853,-0.8757 0,-0.5326 0.378687,-0.8639 0.366854,-0.3432 1.242569,-0.3432 z"
         style="font-size:24.236px;line-height:1.25"
         id="path19" />
      <path
         d="m 91.25591,1029.2296 v 12.9227 h 2.91116 q 0.875715,0 1.242568,0.3432 0.378688,0.3313 0.378688,0.8757 0,0.5325 -0.378688,0.8757 -0.366853,0.3313 -1.242568,0.3313 h -8.248287 q -0.875715,0 -1.254403,-0.3313 -0.366853,-0.3432 -0.366853,-0.8876 0,-0.5325 0.366853,-0.8638 0.378688,-0.3432 1.254403,-0.3432 h 2.91116 v -10.4968 h -1.952608 q -0.863881,0 -1.242568,-0.3313 -0.378688,-0.3432 -0.378688,-0.8876 0,-0.5325 0.366854,-0.8638 0.378687,-0.3432 1.254402,-0.3432 z"
         style="font-size:24.236px;line-height:1.25"
         id="path21" />
      <path
         d="m 104.59281,1037.6909 -2.24846,6.8873 h -2.721812 l -1.443746,-11.9168 q -0.556198,-0.071 -0.840213,-0.3787 -0.284016,-0.3195 -0.284016,-0.8047 0,-0.568 0.366854,-0.9112 0.378687,-0.3432 1.254402,-0.3432 l 3.230681,0.012 q 0.87571,0 1.24257,0.3313 0.37868,0.3314 0.37868,0.8757 0,0.5444 -0.37868,0.8876 -0.36686,0.3313 -1.24257,0.3313 h -1.26624 l 0.80471,6.7809 1.90527,-5.6448 h 2.52064 l 1.89344,5.6448 0.80471,-6.7809 h -1.26624 q -0.87571,0 -1.2544,-0.3313 -0.36685,-0.3432 -0.36685,-0.8876 0,-0.5443 0.36685,-0.8757 0.37869,-0.3432 1.2544,-0.3432 l 3.21885,0.012 q 0.87571,0 1.24257,0.3313 0.37868,0.3314 0.37868,0.8757 0,0.4615 -0.29585,0.7929 -0.29585,0.3314 -0.85204,0.426 l -1.39641,11.9168 h -2.67448 z"
         style="font-size:24.236px;line-height:1.25"
         id="path23" />
      <path
         d="m 121.31423,1044.5782 v -0.568 q -0.91122,0.4852 -2.01178,0.7219 -1.10056,0.2485 -1.99994,0.2485 -1.95261,0 -3.17151,-1.0296 -1.2189,-1.0413 -1.2189,-2.2957 0,-1.5266 1.55025,-2.8284 1.56209,-1.3135 4.30757,-1.3135 1.10056,0 2.54431,0.2366 v -0.5798 q 0,-0.5444 -0.47336,-0.8876 -0.46153,-0.3432 -1.7751,-0.3432 -1.07689,0 -2.79282,0.4261 -0.63903,0.1538 -0.99405,0.1538 -0.4852,0 -0.82838,-0.3432 -0.33135,-0.355 -0.33135,-0.8994 0,-0.3076 0.11834,-0.5325 0.11834,-0.2248 0.33135,-0.355 0.21301,-0.142 0.88755,-0.3314 0.89938,-0.2485 1.83426,-0.3905 0.93489,-0.1538 1.69226,-0.1538 2.26029,0 3.50286,0.9822 1.25441,0.9704 1.25441,2.6626 v 4.994 h 0.41419 q 0.87571,0 1.24256,0.3432 0.37869,0.3313 0.37869,0.8757 0,0.5325 -0.37869,0.8757 -0.36685,0.3313 -1.24256,0.3313 z m 0,-4.343 q -1.45558,-0.284 -2.68632,-0.284 -1.47924,0 -2.5443,0.7218 -0.66271,0.4616 -0.66271,0.9349 0,0.3432 0.31952,0.5562 0.5917,0.3905 1.62126,0.3905 0.87571,0 1.97627,-0.3431 1.1124,-0.3432 1.97628,-0.9349 z"
         style="font-size:24.236px;line-height:1.25"
         id="path25" />
      <path
         d="m 136.29605,1036.6731 q -0.59169,-0.3668 -1.24256,-0.5443 -0.65087,-0.1894 -1.36091,-0.1894 -1.40825,0 -2.23663,0.4616 -0.36685,0.2011 -0.36685,0.4378 0,0.2722 0.49703,0.5326 0.37869,0.1893 1.69226,0.3668 2.41413,0.3314 3.36085,0.6627 1.24257,0.4379 1.91711,1.3017 0.67453,0.8639 0.67453,1.8225 0,1.3017 -1.14789,2.1774 -1.64493,1.2663 -4.27207,1.2663 -1.05323,0 -1.95261,-0.1894 -0.88755,-0.1775 -1.63309,-0.5325 -0.17751,0.1538 -0.37869,0.2367 -0.20117,0.083 -0.41419,0.083 -0.56803,0 -0.91121,-0.3668 -0.33135,-0.3787 -0.33135,-1.2544 v -0.8166 q 0,-0.8757 0.33135,-1.2426 0.34318,-0.3786 0.88755,-0.3786 0.43785,0 0.7337,0.2485 0.29585,0.2366 0.46153,0.8283 0.5562,0.4734 1.33724,0.7219 0.78104,0.2367 1.79876,0.2367 1.6686,0 2.59165,-0.5207 0.43785,-0.2603 0.43785,-0.5444 0,-0.4733 -0.6272,-0.781 -0.6272,-0.3077 -2.59164,-0.5207 -2.92299,-0.3077 -3.90521,-1.1834 -0.98223,-0.8639 -0.98223,-2.1301 0,-1.3017 1.10057,-2.1656 1.49108,-1.1834 3.90521,-1.1834 0.84021,0 1.60942,0.1656 0.78104,0.1539 1.49108,0.4852 0.22485,-0.1656 0.41419,-0.2485 0.20118,-0.083 0.36686,-0.083 0.49702,0 0.82838,0.3787 0.33135,0.3668 0.33135,1.2425 v 0.5917 q 0,0.7929 -0.18935,1.0769 -0.37868,0.5444 -1.02955,0.5444 -0.43786,0 -0.76921,-0.2722 -0.33135,-0.2722 -0.42603,-0.7219 z"
         style="font-size:24.236px;line-height:1.25"
         id="path27" />
      <path
         d="m 145.71591,1029.2296 v 5.1714 q 0.75737,-0.4497 1.52658,-0.6627 0.78104,-0.2248 1.57392,-0.2248 1.2544,0 2.23662,0.426 0.98223,0.426 1.62126,1.3491 0.65087,0.9112 0.65087,2.3076 v 4.5561 q 0.92305,0 1.20707,0.1775 0.56803,0.3668 0.56803,1.0414 0,0.5325 -0.36686,0.8757 -0.36685,0.3313 -1.24256,0.3313 h -2.76916 q -0.86388,0 -1.24257,-0.3313 -0.36685,-0.3432 -0.36685,-0.8876 0,-0.6627 0.56803,-1.0295 0.29585,-0.1894 1.20707,-0.1775 v -4.3904 q 0,-0.9349 -0.42602,-1.3136 -0.5562,-0.5089 -1.64493,-0.5089 -0.80471,0 -1.43191,0.3196 -0.61537,0.3076 -1.66859,1.349 v 4.5443 q 0.93488,0 1.20706,0.1775 0.57987,0.3668 0.57987,1.0414 0,0.5325 -0.37869,0.8757 -0.36685,0.3313 -1.24257,0.3313 h -2.75732 q -0.87571,0 -1.2544,-0.3313 -0.36685,-0.3432 -0.36685,-0.8876 0,-0.6627 0.57986,-1.0295 0.28402,-0.1894 1.20707,-0.1775 v -10.4968 h -0.41419 q -0.87571,0 -1.2544,-0.3313 -0.36685,-0.3432 -0.36685,-0.8876 0,-0.5325 0.36685,-0.8638 0.37869,-0.3432 1.2544,-0.3432 z"
         style="font-size:24.236px;line-height:1.25"
         id="path29" />
      <path
         d="m 168.85135,1040.4364 h -9.95238 q 0.37868,0.9467 1.33724,1.5265 0.97038,0.5799 2.61531,0.5799 1.34907,0 3.5857,-0.5799 0.92305,-0.2366 1.27807,-0.2366 0.48519,0 0.81654,0.3431 0.33135,0.3432 0.33135,0.8639 0,0.4734 -0.35502,0.8047 -0.47336,0.4379 -2.30762,0.8402 -1.83427,0.3906 -3.52653,0.3906 -2.91116,0 -4.66259,-1.645 -1.7396,-1.6449 -1.7396,-4.0472 0,-2.5561 1.88161,-4.1537 1.89343,-1.6094 4.3549,-1.6094 1.47925,0 2.70999,0.5207 1.24256,0.5207 1.8461,1.1242 0.85204,0.8757 1.40824,2.1656 0.37869,0.8994 0.37869,2.0828 z m -2.68632,-2.426 q -0.55619,-1.0414 -1.45558,-1.5503 -0.89938,-0.5207 -2.14195,-0.5207 -1.23073,0 -2.13011,0.5207 -0.89939,0.5089 -1.46742,1.5503 z"
         style="font-size:24.236px;line-height:1.25"
         id="path31" />
      <path
         d="m 176.80379,1033.833 v 1.5147 q 1.52658,-1.1005 2.4023,-1.4674 0.88754,-0.3668 1.65675,-0.3668 1.1834,0 2.2958,0.8757 0.75737,0.5917 0.75737,1.2071 0,0.5206 -0.36685,0.8875 -0.35502,0.355 -0.86388,0.355 -0.44969,0 -0.94672,-0.4497 -0.49703,-0.4497 -0.88755,-0.4497 -0.50886,0 -1.52658,0.6391 -1.00589,0.639 -2.52064,1.9171 v 3.6567 h 3.45552 q 0.87572,0 1.24257,0.3432 0.37869,0.3313 0.37869,0.8757 0,0.5325 -0.37869,0.8757 -0.36685,0.3313 -1.24257,0.3313 h -7.32524 q -0.87571,0 -1.2544,-0.3313 -0.36685,-0.3432 -0.36685,-0.8876 0,-0.5325 0.36685,-0.8638 0.37869,-0.3432 1.2544,-0.3432 h 1.44375 v -5.8933 h -0.87571 q -0.87572,0 -1.25441,-0.3314 -0.36685,-0.3432 -0.36685,-0.8875 0,-0.5326 0.36685,-0.8639 0.37869,-0.3432 1.25441,-0.3432 z"
         style="font-size:24.236px;line-height:1.25"
         id="path33" />
    </g>
    <g
       id="g4213"
       transform="translate(0,1.7382813e-5)">
      <path
         id="rect4800"
         style="fill:#5981ff;stroke-width:1.5;stroke-linecap:round;stroke-linejoin:round"
         d="m 0,1022.3622 h 30 v 30 H 0 Z" />
      <g
         transform="matrix(1.1669166,0,0,1.1669166,-2.5413153,-173.19631)"
         id="g4195">
        <g
           aria-label="&lt;html&gt;"
           transform="rotate(-45)"
           id="text4819-8"
           style="font-weight:bold;line-height:0%;font-family:'Courier New';-inkscape-font-specification:'Courier New Bold';letter-spacing:0px;word-spacing:0px;fill:#1e2329;stroke-width:1px">
          <path
             d="m -736.43076,744.47323 2.72572,1.51064 q 0.20525,0.11494 0.27093,0.20525 0.0698,0.0903 0.0698,0.22987 0,0.17652 -0.12726,0.30788 -0.12725,0.12725 -0.29556,0.12725 -0.11083,0 -0.3325,-0.12315 l -4.05984,-2.25774 4.05984,-2.25775 q 0.22167,-0.11904 0.3284,-0.11904 0.17241,0 0.29966,0.12725 0.12726,0.12725 0.12726,0.30377 0,0.13957 -0.0698,0.22988 -0.0657,0.0903 -0.27093,0.20525 z"
             style="font-size:8.40703px;line-height:1.25"
             id="path37" />
          <path
             d="m -731.3734,741.54637 v 1.79388 q 0.26272,-0.15599 0.52954,-0.22988 0.27093,-0.078 0.54597,-0.078 0.43513,0 0.77584,0.14778 0.34072,0.14778 0.56239,0.46797 0.22577,0.31609 0.22577,0.80048 v 1.58042 q 0.32019,0 0.41871,0.0616 0.19704,0.12725 0.19704,0.36123 0,0.18473 -0.12726,0.30377 -0.12725,0.11494 -0.43102,0.11494 h -0.96057 q -0.29966,0 -0.43102,-0.11494 -0.12726,-0.11904 -0.12726,-0.30787 0,-0.22988 0.19704,-0.35713 0.10263,-0.0657 0.41871,-0.0616 v -1.52295 q 0,-0.3243 -0.14778,-0.45566 -0.19293,-0.17651 -0.57059,-0.17651 -0.27914,0 -0.49671,0.11083 -0.21346,0.10673 -0.5788,0.46797 v 1.57632 q 0.32429,0 0.41871,0.0616 0.20114,0.12725 0.20114,0.36123 0,0.18473 -0.13136,0.30377 -0.12725,0.11494 -0.43102,0.11494 h -0.95647 q -0.30377,0 -0.43513,-0.11494 -0.12725,-0.11904 -0.12725,-0.30787 0,-0.22988 0.20114,-0.35713 0.0985,-0.0657 0.41871,-0.0616 v -3.64113 h -0.14367 q -0.30377,0 -0.43513,-0.11494 -0.12725,-0.11905 -0.12725,-0.30787 0,-0.18473 0.12725,-0.29967 0.13136,-0.11904 0.43513,-0.11904 z"
             style="font-size:8.40703px;line-height:1.25"
             id="path39" />
          <path
             d="m -725.66746,743.98473 v 1.68716 q 0,0.27093 0.11084,0.35713 0.17241,0.13547 0.61575,0.13547 0.64448,0 1.19044,-0.27504 0.20936,-0.10673 0.3284,-0.10673 0.1642,0 0.28325,0.12315 0.12315,0.12315 0.12315,0.29967 0,0.1642 -0.13136,0.28324 -0.20115,0.19293 -0.79637,0.35713 -0.59112,0.1601 -0.99751,0.1601 -0.78406,0 -1.17814,-0.33661 -0.38997,-0.34071 -0.38997,-0.83331 v -1.85136 h -0.30377 q -0.30377,0 -0.43513,-0.11494 -0.12726,-0.11904 -0.12726,-0.30787 0,-0.18473 0.12726,-0.29967 0.13136,-0.11904 0.43513,-0.11904 h 0.30377 v -0.75943 q 0,-0.30376 0.11494,-0.43102 0.11904,-0.13136 0.30787,-0.13136 0.18473,0 0.29967,0.13136 0.11904,0.12726 0.11904,0.43102 v 0.75943 h 1.55579 q 0.30377,0 0.43103,0.11904 0.13136,0.11494 0.13136,0.30377 0,0.18473 -0.13136,0.30377 -0.12726,0.11494 -0.43103,0.11494 z"
             style="font-size:8.40703px;line-height:1.25"
             id="path41" />
          <path
             d="m -721.71435,743.14321 v 0.23809 q 0.20525,-0.20115 0.36945,-0.27504 0.16831,-0.078 0.38587,-0.078 0.18473,0 0.36535,0.0903 0.18062,0.0903 0.35303,0.27093 0.21756,-0.18062 0.43923,-0.26683 0.22577,-0.0903 0.45976,-0.0903 0.46797,0 0.75942,0.25041 0.38587,0.3284 0.38587,0.86205 v 1.88419 q 0.26272,0 0.38998,0.11905 0.12725,0.11904 0.12725,0.30376 0,0.18473 -0.12725,0.30377 -0.12726,0.11494 -0.43103,0.11494 h -0.80047 v -2.65593 q 0,-0.19293 -0.0698,-0.26682 -0.0698,-0.0739 -0.21346,-0.0739 -0.13957,0 -0.25861,0.0739 -0.15189,0.10262 -0.36945,0.38587 v 1.69536 q 0.26272,0 0.38997,0.11905 0.12726,0.11904 0.12726,0.30376 0,0.18473 -0.12726,0.30377 -0.12725,0.11494 -0.43102,0.11494 h -0.80047 v -2.65593 q 0,-0.18883 -0.0739,-0.26272 -0.0698,-0.078 -0.21346,-0.078 -0.14778,0 -0.29146,0.0944 -0.14367,0.0903 -0.34482,0.36535 v 1.69536 q 0.26272,0 0.38998,0.11905 0.13136,0.11904 0.13136,0.30376 0,0.18473 -0.13136,0.30377 -0.12726,0.11494 -0.43103,0.11494 h -0.75942 q -0.30377,0 -0.43103,-0.11494 -0.13136,-0.11904 -0.13136,-0.30787 0,-0.18472 0.12726,-0.29966 0.12725,-0.11905 0.39408,-0.11905 v -2.04429 q -0.26683,0 -0.39408,-0.11904 -0.12726,-0.11905 -0.12726,-0.30377 0,-0.18473 0.13136,-0.29967 0.12726,-0.11904 0.43103,-0.11904 z"
             style="font-size:8.40703px;line-height:1.25"
             id="path43" />
          <path
             d="m -714.94932,741.54637 v 4.48265 h 1.00983 q 0.30377,0 0.43103,0.11905 0.13136,0.11494 0.13136,0.30376 0,0.18473 -0.13136,0.30377 -0.12726,0.11494 -0.43103,0.11494 h -2.86118 q -0.30377,0 -0.43513,-0.11494 -0.12725,-0.11904 -0.12725,-0.30787 0,-0.18472 0.12725,-0.29966 0.13136,-0.11905 0.43513,-0.11905 h 1.00983 v -3.64113 h -0.67732 q -0.29967,0 -0.43103,-0.11494 -0.13136,-0.11905 -0.13136,-0.30787 0,-0.18473 0.12726,-0.29967 0.13136,-0.11904 0.43513,-0.11904 z"
             style="font-size:8.40703px;line-height:1.25"
             id="path45" />
          <path
             d="m -709.43631,744.47323 -2.72571,-1.51064 q -0.20525,-0.11494 -0.27504,-0.20525 -0.0657,-0.0903 -0.0657,-0.22988 0,-0.17652 0.12726,-0.30377 0.12725,-0.12725 0.29966,-0.12725 0.10673,0 0.3284,0.11904 l 4.05984,2.25775 -4.05984,2.25774 q -0.22167,0.12315 -0.3284,0.12315 -0.17241,0 -0.29966,-0.12725 -0.12726,-0.12726 -0.12726,-0.30788 0,-0.13956 0.0657,-0.22987 0.0698,-0.0903 0.27504,-0.20525 z"
             style="font-size:8.40703px;line-height:1.25"
             id="path47" />
        </g>
        <path
           style="fill:none;fill-opacity:1;stroke:#1e2329;stroke-width:1.2;stroke-miterlimit:4;stroke-dasharray:none"
           d="m 19.493456,1027.608 c -4.110351,-1.7863 -8.89495,-0.8783 -12.0650096,2.2898 -3.1648562,3.1702 -4.071141,7.9525 -2.2856671,12.0609 m 6.1277987,5.8433 c 4.013483,1.5297 8.550995,0.5631 11.592683,-2.4694 3.035635,-3.0416 4.003945,-7.5814 2.473494,-11.5968"
           id="path3348" />
      </g>
    </g>
  </g>
</svg>
